<svg xmlns="http://www.w3.org/2000/svg" width="100" height="100" viewBox="0 0 100 100">
  <g id="alt_route_black_24dp" transform="translate(0)">
    <rect id="Retângulo_1345" data-name="Retângulo 1345" width="100" height="100" transform="translate(0)" fill="none"/>
    <path id="Caminho_1175" data-name="Caminho 1175" d="M24.187,34.187l-4.437,4.99a26.26,26.26,0,0,1-5.594-10.331l6.062-1.722A19.2,19.2,0,0,0,24.187,34.187ZM28,16.055,15.5,2,3,16.055h9.437a59.026,59.026,0,0,0,.594,7.625l6.062-1.722a52.1,52.1,0,0,1-.406-5.9Zm31.25,0L46.749,2,34.25,16.055h9.344c-.313,12.931-4,16.691-7.937,20.661a29.353,29.353,0,0,0-4.531,5.446,24.256,24.256,0,0,0-3.531-4.357l-4.406,4.955C26.093,45.747,28,48.172,28,54.708h0V72.277h6.25V54.708h0c0-7.1,2.219-9.347,5.594-12.755,4.312-4.357,9.625-9.768,10-25.9Z" transform="translate(18.875 12.862)" fill="#005271"/>
  </g>
</svg>
